<svg width="110" height="110" viewBox="0 0 110 110" fill="none" xmlns="http://www.w3.org/2000/svg">
<path d="M34.375 82.5C36.2847 82.5 37.908 81.8316 39.2448 80.4948C40.5816 79.158 41.25 77.5347 41.25 75.625C41.25 73.7153 40.5816 72.092 39.2448 70.7552C37.908 69.4184 36.2847 68.75 34.375 68.75C32.4653 68.75 30.842 69.4184 29.5052 70.7552C28.1684 72.092 27.5 73.7153 27.5 75.625C27.5 77.5347 28.1684 79.158 29.5052 80.4948C30.842 81.8316 32.4653 82.5 34.375 82.5ZM34.375 41.25C36.2847 41.25 37.908 40.5816 39.2448 39.2448C40.5816 37.908 41.25 36.2847 41.25 34.375C41.25 32.4653 40.5816 30.842 39.2448 29.5052C37.908 28.1684 36.2847 27.5 34.375 27.5C32.4653 27.5 30.842 28.1684 29.5052 29.5052C28.1684 30.842 27.5 32.4653 27.5 34.375C27.5 36.2847 28.1684 37.908 29.5052 39.2448C30.842 40.5816 32.4653 41.25 34.375 41.25ZM55 61.875C56.9097 61.875 58.533 61.2066 59.8698 59.8698C61.2066 58.533 61.875 56.9097 61.875 55C61.875 53.0903 61.2066 51.467 59.8698 50.1302C58.533 48.7934 56.9097 48.125 55 48.125C53.0903 48.125 51.467 48.7934 50.1302 50.1302C48.7934 51.467 48.125 53.0903 48.125 55C48.125 56.9097 48.7934 58.533 50.1302 59.8698C51.467 61.2066 53.0903 61.875 55 61.875ZM75.625 82.5C77.5347 82.5 79.158 81.8316 80.4948 80.4948C81.8316 79.158 82.5 77.5347 82.5 75.625C82.5 73.7153 81.8316 72.092 80.4948 70.7552C79.158 69.4184 77.5347 68.75 75.625 68.75C73.7153 68.75 72.092 69.4184 70.7552 70.7552C69.4184 72.092 68.75 73.7153 68.75 75.625C68.75 77.5347 69.4184 79.158 70.7552 80.4948C72.092 81.8316 73.7153 82.5 75.625 82.5ZM75.625 41.25C77.5347 41.25 79.158 40.5816 80.4948 39.2448C81.8316 37.908 82.5 36.2847 82.5 34.375C82.5 32.4653 81.8316 30.842 80.4948 29.5052C79.158 28.1684 77.5347 27.5 75.625 27.5C73.7153 27.5 72.092 28.1684 70.7552 29.5052C69.4184 30.842 68.75 32.4653 68.75 34.375C68.75 36.2847 69.4184 37.908 70.7552 39.2448C72.092 40.5816 73.7153 41.25 75.625 41.25ZM22.9167 96.25C20.3958 96.25 18.2378 95.3524 16.4427 93.5573C14.6476 91.7622 13.75 89.6042 13.75 87.0833V22.9167C13.75 20.3958 14.6476 18.2378 16.4427 16.4427C18.2378 14.6476 20.3958 13.75 22.9167 13.75H87.0833C89.6042 13.75 91.7622 14.6476 93.5573 16.4427C95.3524 18.2378 96.25 20.3958 96.25 22.9167V87.0833C96.25 89.6042 95.3524 91.7622 93.5573 93.5573C91.7622 95.3524 89.6042 96.25 87.0833 96.25H22.9167Z" fill="#242424"/>
</svg>
