<svg width="117" height="117" viewBox="0 0 117 117" fill="none" xmlns="http://www.w3.org/2000/svg">
<path d="M53.625 97.5H31.6875C24.2938 97.5 17.9766 94.9406 12.7359 89.8219C7.49531 84.7031 4.875 78.4469 4.875 71.0531C4.875 64.7156 6.78438 59.0688 10.6031 54.1125C14.4219 49.1563 19.4188 45.9875 25.5938 44.6063C27.625 37.1313 31.6875 31.0781 37.7813 26.4469C43.875 21.8156 50.7813 19.5 58.5 19.5C68.0063 19.5 76.0703 22.8109 82.6922 29.4328C89.3141 36.0547 92.625 44.1188 92.625 53.625C98.2313 54.275 102.883 56.6922 106.58 60.8766C110.277 65.0609 112.125 69.9563 112.125 75.5625C112.125 81.6563 109.992 86.8359 105.727 91.1016C101.461 95.3672 96.2813 97.5 90.1875 97.5H63.375V62.6438L71.175 70.2L78 63.375L58.5 43.875L39 63.375L45.825 70.2L53.625 62.6438V97.5Z" fill="#242424"/>
</svg>
