<svg width="106" height="106" viewBox="0 0 106 106" fill="none" xmlns="http://www.w3.org/2000/svg">
<g clip-path="url(#clip0_36_975)">
<path d="M103.764 15.7551C106.062 14.2438 106.704 11.1797 105.193 8.88169C103.681 6.58364 100.617 5.94184 98.3191 7.45317L76.643 21.6348C69.5211 20.434 61.4883 19.875 53 19.875C23.7258 19.875 0 26.5 0 43.0625V76.1876C0 82.6676 5.67266 88.361 14.9062 92.4809V71.2188C14.9062 68.4653 17.1215 66.25 19.875 66.25C22.6285 66.25 24.8438 68.4653 24.8438 71.2188V95.9383C31.6758 97.7809 39.5637 98.9403 48.0312 99.2715V77.8438C48.0312 75.0903 50.2465 72.8751 53 72.8751C55.7535 72.8751 57.9688 75.0903 57.9688 77.8438V99.2715C66.4363 98.9403 74.3242 97.7809 81.1562 95.9383V71.2188C81.1562 68.4653 83.3715 66.25 86.125 66.25C88.8785 66.25 91.0938 68.4653 91.0938 71.2188V92.4809C100.327 88.361 106 82.6676 106 76.1876V43.0625C106 34.5536 99.7477 28.6739 89.6859 24.968L103.743 15.7551H103.764ZM63.6414 30.1438L50.2672 38.9012C47.9691 40.4125 47.3273 43.4766 48.8387 45.7747C50.35 48.0727 53.4141 48.7145 55.7121 47.2032L78.7133 32.1313C81.7566 32.7938 84.4895 33.5805 86.8703 34.5122C94.9031 37.6383 96.0625 40.868 96.0625 43.0625C96.0625 43.2282 95.5035 46.6235 86.5391 50.495C78.4855 53.9731 66.6641 56.3125 53 56.3125C39.3359 56.3125 27.5145 53.9731 19.4609 50.495C10.4965 46.6235 9.9375 43.2282 9.9375 43.0625C9.9375 40.868 11.0969 37.6383 19.1297 34.5122C27.0383 31.4481 38.8805 29.8125 53 29.8125C56.7266 29.8125 60.2668 29.9161 63.6414 30.1438Z" fill="#242424"/>
</g>
<defs>
<clipPath id="clip0_36_975">
<rect width="106" height="106" fill="white"/>
</clipPath>
</defs>
</svg>
