<svg width="187" height="221" viewBox="0 0 187 221" fill="none" xmlns="http://www.w3.org/2000/svg">
<g clip-path="url(#clip0_8_167)">
<path d="M92.7074 16.8542C91.9773 11.2555 91.862 5.62774 92.4 0C93.1397 5.59873 93.2357 11.2265 92.7074 16.8542Z" fill="#FCC200"/>
<path d="M54.4842 27.5876C51.0643 23.1105 48.1825 18.295 45.8481 13.1508C49.268 17.6278 52.1498 22.453 54.4842 27.5876Z" fill="#FCC200"/>
<path d="M26.7221 56.1227C21.5347 53.9664 16.6451 51.2492 12.0725 47.9712C17.2599 50.1275 22.1495 52.8544 26.7221 56.1227Z" fill="#FCC200"/>
<path d="M16.8468 94.8014C11.2848 95.5363 5.69393 95.6523 0.103088 95.1108C5.66511 94.3663 11.256 94.2696 16.8468 94.8014Z" fill="#FCC200"/>
<path d="M27.5097 133.277C23.062 136.719 18.2781 139.62 13.1675 141.97C17.6152 138.528 22.4088 135.627 27.5097 133.277Z" fill="#FCC200"/>
<path d="M160.278 131.904C165.465 134.06 170.355 136.777 174.928 140.055C169.74 137.899 164.851 135.172 160.278 131.904Z" fill="#FCC200"/>
<path d="M170.153 93.2155C175.715 92.4807 181.306 92.3646 186.897 92.9061C181.335 93.6507 175.744 93.7474 170.153 93.2155Z" fill="#FCC200"/>
<path d="M159.49 54.7399C163.938 51.2975 168.722 48.3966 173.832 46.0469C169.385 49.4893 164.591 52.3902 159.49 54.7399Z" fill="#FCC200"/>
<path d="M131.142 26.7946C133.284 21.573 135.984 16.6512 139.24 12.0484C137.098 17.27 134.389 22.1919 131.142 26.7946Z" fill="#FCC200"/>
<g opacity="0.5">
<path d="M161.162 99.027C157.809 141.332 122.794 154.086 122.794 154.086C120.22 160.516 116.867 176.868 116.867 176.868H70.1327C70.1327 176.868 66.7802 160.516 64.2057 154.086C64.2057 154.086 29.1909 141.332 25.8383 99.027C23.5039 69.6312 44.3015 26.1855 93.255 26.1758H93.7642C142.718 26.1855 163.506 69.6409 161.181 99.027H161.162Z" fill="#FCC200"/>
</g>
<path d="M155.388 99.2397C152.324 137.928 120.297 149.599 120.297 149.599C117.943 155.478 114.869 176.868 114.869 176.868H72.1212C72.1212 176.868 69.0568 155.478 66.6937 149.599C66.6937 149.599 34.6664 137.938 31.602 99.2397C29.4694 72.3581 48.4898 32.6158 93.255 32.6061H93.7161C138.491 32.6061 157.502 72.3581 155.369 99.2397H155.388Z" fill="#FCC200"/>
<path d="M82.1406 180.861L68.4036 106.792" stroke="#F5F5F5" stroke-width="3" stroke-miterlimit="10"/>
<path d="M104.879 180.861L118.596 106.782" stroke="#F5F5F5" stroke-width="3" stroke-miterlimit="10"/>
<path d="M69.5756 109.615C69.5756 109.615 72.2942 124.12 78.8168 124.12C85.3395 124.12 91.4587 102.498 82.8899 102.498C74.3211 102.498 82.6209 130.821 93.4952 130.821C104.369 130.821 110.623 102.489 103.005 102.498C95.3973 102.498 97.7988 125.077 108.27 125.077C113.889 125.077 117.895 110.534 117.895 110.534" stroke="#F5F5F5" stroke-miterlimit="10"/>
<path d="M122.775 176.916H64.2249V209.348H122.775V176.916Z" fill="#455A64"/>
<path d="M116.137 209.358C112.698 215.508 106.089 221 93.5047 221C80.9205 221 74.3114 215.498 70.8724 209.358H116.147H116.137Z" fill="#455A64"/>
<path d="M116.137 209.358C115.148 211.118 113.918 212.81 112.343 214.347L72.0348 211.234C71.6025 210.615 71.2183 209.996 70.8629 209.358H116.137Z" fill="#37474F"/>
<path d="M124.485 183.105L62.515 188.877V186.044L124.485 180.281V183.105Z" fill="#37474F"/>
<path d="M124.485 191.672L62.515 197.435V194.612L124.485 188.839V191.672Z" fill="#37474F"/>
<path d="M124.485 200.23L62.515 206.002V203.169L124.485 197.406V200.23Z" fill="#37474F"/>
<g opacity="0.5">
<path d="M40.5838 89.1349C42.726 89.4926 45.5119 78.3435 57.4236 65.4345C62.7167 59.7004 82.7938 52.5255 81.3432 45.9115C79.8927 39.2975 61.9866 46.0952 52.9759 56.6061C38.4801 73.5087 38.605 88.7964 40.5838 89.1349Z" fill="white"/>
<path d="M146.205 91.4652C150.153 91.4652 150.162 85.2863 146.205 85.2863C142.247 85.2863 142.247 91.4652 146.205 91.4652Z" fill="white"/>
<path d="M126.886 137.918C129.048 139.572 139.519 129.844 144.245 118.231C148.164 108.59 148.837 96.4065 146.205 95.7006C143.563 94.9947 141.863 111.714 138.693 117.873C134.687 125.648 124.581 136.149 126.886 137.918Z" fill="white"/>
</g>
</g>
<defs>
<clipPath id="clip0_8_167">
<rect width="187" height="221" fill="white"/>
</clipPath>
</defs>
</svg>
