<svg width="118" height="116" viewBox="0 0 118 116" fill="none" xmlns="http://www.w3.org/2000/svg">
<g clip-path="url(#clip0_36_973)">
<path fill-rule="evenodd" clip-rule="evenodd" d="M58.8242 0C26.2959 0 0 26.5833 0 59.4705C0 85.759 16.8487 108.012 40.2223 115.888C43.1447 116.48 44.2151 114.608 44.2151 113.034C44.2151 111.655 44.1188 106.929 44.1188 102.005C27.7553 105.55 24.3477 94.9158 24.3477 94.9158C21.718 88.0235 17.8216 86.252 17.8216 86.252C12.4659 82.6089 18.2117 82.6089 18.2117 82.6089C24.1527 83.0028 27.27 88.7134 27.27 88.7134C32.5283 97.7711 41.0014 95.2118 44.4101 93.6362C44.8966 89.7961 46.4559 87.1377 48.1115 85.6612C35.0605 84.2825 21.3291 79.1628 21.3291 56.3192C21.3291 49.8208 23.665 44.5041 27.3664 40.3692C26.7824 38.8926 24.7367 32.7869 27.9516 24.615C27.9516 24.615 32.9184 23.0393 44.1175 30.7195C48.9123 29.4177 53.8571 28.7555 58.8242 28.7499C63.791 28.7499 68.8542 29.4398 73.5297 30.7195C84.73 23.0393 89.6969 24.615 89.6969 24.615C92.9118 32.7869 90.8648 38.8926 90.2808 40.3692C94.0797 44.5041 96.3193 49.8208 96.3193 56.3192C96.3193 79.1628 82.588 84.1834 69.4394 85.6612C71.5826 87.5317 73.4321 91.0757 73.4321 96.6884C73.4321 104.663 73.3358 111.064 73.3358 113.032C73.3358 114.608 74.4074 116.48 77.3285 115.889C100.702 108.01 117.551 85.759 117.551 59.4705C117.647 26.5833 91.2549 0 58.8242 0Z" fill="#242424"/>
</g>
<defs>
<clipPath id="clip0_36_973">
<rect width="118" height="116" fill="white"/>
</clipPath>
</defs>
</svg>
