<svg width="261" height="256" viewBox="0 0 261 256" fill="none" xmlns="http://www.w3.org/2000/svg">
<g clip-path="url(#clip0_8_117)">
<path d="M176.267 198.334C215.914 158.526 215.914 93.9852 176.267 54.1776C136.62 14.37 72.3401 14.37 32.6933 54.1776C-6.95361 93.9852 -6.95361 158.526 32.6933 198.334C72.3401 238.141 136.62 238.141 176.267 198.334Z" fill="#3FBA9E"/>
<path d="M183.068 198.333C222.715 158.525 222.715 93.9846 183.068 54.177C143.421 14.3694 79.141 14.3694 39.4941 54.177C-0.152718 93.9846 -0.15271 158.525 39.4942 198.333C79.141 238.141 143.421 238.141 183.068 198.333Z" fill="white"/>
<path d="M111.281 213.252C159.134 213.252 197.926 174.302 197.926 126.256C197.926 78.2089 159.134 39.2594 111.281 39.2594C63.4283 39.2594 24.6361 78.2089 24.6361 126.256C24.6361 174.302 63.4283 213.252 111.281 213.252Z" fill="#3FBA9E"/>
<path d="M111.281 217.609C61.1118 217.609 20.2963 176.628 20.2963 126.256C20.2963 75.8829 61.1118 34.9019 111.281 34.9019C161.45 34.9019 202.266 75.8829 202.266 126.256C202.266 176.628 161.45 217.609 111.281 217.609ZM111.281 39.2585C63.5049 39.2585 24.6362 78.2848 24.6362 126.255C24.6362 174.224 63.5049 213.251 111.281 213.251C159.057 213.251 197.926 174.224 197.926 126.255C197.926 78.2848 159.057 39.2585 111.281 39.2585Z" fill="white"/>
<path d="M148.632 163.758C169.261 143.046 169.261 109.464 148.632 88.7523C128.004 68.0402 94.5584 68.0402 73.9299 88.7523C53.3013 109.464 53.3013 143.046 73.9299 163.758C94.5584 184.47 128.004 184.47 148.632 163.758Z" fill="#3FBA9E"/>
<path d="M111.281 183.65C79.7616 183.65 54.1184 157.903 54.1184 126.255C54.1184 94.6066 79.7616 68.8604 111.281 68.8604C142.8 68.8604 168.444 94.6066 168.444 126.255C168.444 157.903 142.8 183.65 111.281 183.65ZM111.281 77.5753C84.5468 77.5753 62.7973 99.413 62.7973 126.255C62.7973 153.096 84.5468 174.935 111.281 174.935C138.015 174.935 159.765 153.096 159.765 126.255C159.765 99.413 138.015 77.5753 111.281 77.5753Z" fill="white"/>
<path d="M125.753 140.785C133.745 132.76 133.745 119.75 125.753 111.725C117.76 103.7 104.802 103.7 96.8098 111.725C88.8175 119.75 88.8175 132.76 96.8098 140.785C104.802 148.81 117.76 148.81 125.753 140.785Z" fill="#ED6F4E"/>
<path d="M111.281 151.161C97.6039 151.161 86.4764 139.988 86.4764 126.255C86.4764 112.521 97.6039 101.349 111.281 101.349C124.958 101.349 136.087 112.521 136.087 126.255C136.087 139.988 124.959 151.161 111.281 151.161ZM111.281 110.064C102.389 110.064 95.1553 117.328 95.1553 126.256C95.1553 135.184 102.389 142.447 111.281 142.447C120.173 142.447 127.407 135.184 127.407 126.256C127.407 117.328 120.173 110.064 111.281 110.064Z" fill="white"/>
<path d="M252.67 156.894L257.005 165.679L238.622 161.429C232.6 160.037 227.516 156.006 224.771 150.445L252.67 156.894Z" fill="#3FBA9E"/>
<path d="M253.275 154.255L260.999 148.258L242.616 144.008C236.592 142.616 230.266 144.009 225.376 147.805L253.275 154.255Z" fill="#3FBA9E"/>
<path d="M134.359 126.3L133.634 129.464L252.954 157.034L253.679 153.87L134.359 126.3Z" fill="#37474F"/>
<path d="M139.908 124.749C141.716 125.167 139.753 133.723 137.946 133.306L110.496 123.387C109.482 123.02 109.83 121.501 110.902 121.616L139.908 124.749Z" fill="#37474F"/>
</g>
<defs>
<clipPath id="clip0_8_117">
<rect width="261" height="256" fill="white"/>
</clipPath>
</defs>
</svg>
