<svg width="114" height="114" viewBox="0 0 114 114" fill="none" xmlns="http://www.w3.org/2000/svg">
<path d="M28.2625 90.25C20.3458 89.8542 14.4479 88.1917 10.5687 85.2625C6.68958 82.3333 4.75 78.0979 4.75 72.5562C4.75 67.4104 6.86771 63.2344 11.1031 60.0281C15.3385 56.8219 21.2167 54.9021 28.7375 54.2687C31.825 54.0312 34.1406 53.5365 35.6844 52.7844C37.2281 52.0323 38 50.9833 38 49.6375C38 47.5792 36.8323 46.0354 34.4969 45.0063C32.1615 43.9771 28.3021 43.225 22.9187 42.75L23.75 33.25C31.9042 33.8833 37.901 35.526 41.7406 38.1781C45.5802 40.8302 47.5 44.65 47.5 49.6375C47.5 53.8333 45.976 57.1187 42.9281 59.4937C39.8802 61.8687 35.3875 63.2938 29.45 63.7687C24.3833 64.1646 20.5833 65.0948 18.05 66.5594C15.5167 68.024 14.25 70.0229 14.25 72.5562C14.25 75.3271 15.3583 77.326 17.575 78.5531C19.7917 79.7802 23.5125 80.5125 28.7375 80.75L28.2625 90.25ZM65.9062 86.6875L46.3125 67.0938L87.2812 26.125C88.8646 24.5417 90.7448 23.75 92.9219 23.75C95.099 23.75 96.9792 24.5417 98.5625 26.125L106.875 34.4375C108.458 36.0208 109.25 37.901 109.25 40.0781C109.25 42.2552 108.458 44.1354 106.875 45.7188L65.9062 86.6875ZM42.6312 95C41.2854 95.3167 40.0979 94.9604 39.0687 93.9313C38.0396 92.9021 37.6833 91.7146 38 90.3688L41.6812 72.4375L60.4437 91.2L42.6312 95Z" fill="#242424"/>
</svg>
