<svg width="223" height="223" viewBox="0 0 223 223" fill="none" xmlns="http://www.w3.org/2000/svg">
<path d="M187.212 187.218C145.727 228.704 78.2266 228.702 36.7399 187.216C-4.74694 145.729 -4.74824 78.2282 36.7369 36.743C78.2221 -4.74222 145.723 -4.74091 187.209 36.7459C228.696 78.2327 228.698 145.733 187.212 187.218ZM37.7092 37.7153C-3.2412 78.6657 -3.23991 145.291 37.7121 186.243C78.6641 227.195 145.29 227.197 186.24 186.246C227.191 145.296 227.189 78.6702 186.237 37.7181C145.285 -3.23389 78.6597 -3.23518 37.7092 37.7153ZM168.72 169.128C137.323 200.526 86.2353 200.531 54.8361 169.131C23.4369 137.732 23.442 86.645 54.8399 55.247C86.2379 23.8491 137.331 23.85 168.724 55.2432C200.117 86.6363 200.118 137.73 168.72 169.128ZM55.5631 55.9702C24.5662 86.9671 24.5732 137.398 55.5653 168.39C86.5573 199.382 136.994 199.383 167.985 168.392C198.976 137.401 198.981 86.9583 167.989 55.9663C136.997 24.9742 86.56 24.9733 55.5631 55.9702ZM47.5078 186.256L48.8751 187.356L53.2017 181.996L53.2199 182.014L51.6097 189.568L53.3538 190.971L59.1387 183.813L57.7714 182.713L53.4449 188.073L53.4266 188.054L55.0429 180.507L53.2867 179.091L47.5018 186.262L47.5078 186.256ZM62.5174 186.098L64.2493 187.234L62.1895 196.902L60.494 195.79L60.9984 193.597L57.9053 191.561L56.0823 192.886L54.4962 191.846L62.5235 186.092L62.5174 186.098ZM62.3412 188.194L62.323 188.176L59.1327 190.637L61.3629 192.102L62.3473 188.2L62.3412 188.194ZM64.0672 197.869L65.6715 198.756L69.4086 191.956L71.7056 193.22L72.4044 191.95L66.2121 188.541L65.5133 189.811L67.8043 191.069L64.0672 197.869ZM69.19 200.561L70.8429 201.351L74.8047 193.038L73.1518 192.248L69.19 200.561ZM80.0612 195.098C82.735 196.143 83.5189 198.543 82.5041 201.138C81.4955 203.727 79.2835 205.027 76.5915 203.976C73.863 202.912 73.1338 200.518 74.1607 197.887C75.1876 195.256 77.3448 194.047 80.049 195.098M77.1202 202.621C78.8581 203.301 80.1221 201.989 80.7297 200.445C81.3191 198.932 81.2279 197.115 79.5325 196.453C77.8371 195.791 76.5306 197.073 75.9473 198.58C75.3457 200.129 75.3822 201.94 77.1202 202.621ZM82.6562 206.018L84.3516 206.486L86.1805 199.844L86.1988 199.862L87.7424 207.422L89.8936 208.017L92.3424 199.139L90.6469 198.671L88.818 205.313L88.7876 205.307L87.2622 197.741L85.0928 197.14L82.644 206.018L82.6562 206.018ZM96.353 199.905L98.3888 200.251L100.358 209.938L98.3586 209.591L97.9392 207.373L94.2932 206.741L93.1508 208.686L91.2791 208.37L96.347 199.899L96.353 199.905ZM97.0337 201.886L97.0094 201.886L95.0649 205.41L97.6961 205.866L97.0337 201.898L97.0337 201.886ZM101.847 210.029L107.212 210.497L107.334 209.051L103.803 208.741L104.484 201.011L102.655 200.847L101.847 210.029ZM112.523 210.606L114.359 210.594L114.292 201.388L112.456 201.4L112.523 210.606ZM116.546 210.606L118.296 210.473L117.768 203.6L117.792 203.6L121.803 210.199L124.033 210.023L123.328 200.835L121.578 200.969L122.1 207.836L122.076 207.836L118.084 201.23L115.835 201.4L116.54 210.588L116.546 210.606ZM129.909 199.942C129.21 199.827 128.475 199.845 127.697 199.978C126.111 200.24 124.671 201.242 125.005 203.278C125.497 206.286 129.338 204.913 129.623 206.645C129.763 207.465 128.9 207.963 128.214 208.079C127.503 208.194 126.761 208.097 126.087 207.86L126.19 209.531C127.114 209.604 127.576 209.665 128.56 209.495C130.383 209.191 131.823 208.176 131.483 206.183C130.978 203.138 127.138 204.463 126.877 202.889C126.713 201.899 127.472 201.492 128.092 201.394C128.724 201.285 129.38 201.321 129.988 201.479L129.909 199.954L129.909 199.942ZM135.469 207.957L137.25 207.514L135.396 199.985L137.936 199.353L137.59 197.949L130.729 199.644L131.082 201.054L133.622 200.422L135.481 207.957L135.469 207.957ZM141.054 206.457L142.804 205.91L140.069 197.11L138.325 197.651L141.06 206.45L141.054 206.457ZM146.535 204.634L148.249 203.99L145.508 196.728L147.957 195.81L147.446 194.449L140.829 196.934L141.339 198.295L143.788 197.378L146.529 204.64L146.535 204.634ZM150.582 199.517C151.652 201.741 153.341 202.045 155.456 201.036C157.558 200.015 158.372 198.496 157.297 196.278L154.738 190.985L153.092 191.781L155.401 196.57C156.087 197.986 156.081 199.122 154.824 199.736C153.566 200.35 152.672 199.639 151.986 198.223L149.676 193.434L148.03 194.23L150.588 199.523L150.582 199.517ZM162.237 197.232L163.799 196.291L159.812 189.643L162.055 188.3L161.307 187.054L155.249 190.682L155.996 191.927L158.239 190.572L162.231 197.226L162.237 197.232ZM167.275 194.103L171.686 190.967L170.842 189.782L167.925 191.861L166.424 189.752L169.079 187.862L168.241 186.683L165.585 188.573L164.267 186.72L167.165 184.66L166.32 183.475L161.927 186.592L167.269 194.097L167.275 194.103ZM173.084 177.526C175.174 175.569 177.684 175.903 179.586 177.927C181.488 179.963 181.695 182.515 179.58 184.484C177.435 186.483 174.968 186.106 173.041 184.034C171.109 181.968 170.951 179.501 173.078 177.52M178.583 183.426C179.951 182.144 179.312 180.449 178.182 179.233C177.082 178.048 175.393 177.343 174.068 178.583C172.744 179.823 173.327 181.549 174.433 182.74C175.563 183.955 177.216 184.709 178.583 183.426ZM184.065 179.829L185.292 178.468L182.29 175.77L184.356 173.473L183.274 172.5L181.208 174.797L179.525 173.284L181.694 170.872L180.619 169.906L177.222 173.679L184.071 179.835L184.065 179.829ZM192.007 170.185L193.07 168.684L186.738 164.188L188.251 162.055L187.072 161.216L182.983 166.971L184.161 167.809L185.675 165.676L192.001 170.167L192.007 170.185ZM195.379 165.282L198.156 160.633L196.91 159.885L195.075 162.96L192.863 161.635L194.534 158.846L193.289 158.099L191.611 160.894L189.661 159.733L191.49 156.677L190.244 155.929L187.479 160.554L195.379 165.282ZM200.593 152.083C200.605 152.569 200.368 153.402 200.052 154.058C199.195 155.802 197.421 156.215 195.737 155.382C194.042 154.55 193.264 152.848 194.091 151.159C194.382 150.576 194.735 150.053 195.397 149.597L194.06 148.795C193.531 149.275 193.07 149.944 192.808 150.485C191.435 153.268 192.183 155.765 195.008 157.157C197.804 158.53 200.046 157.345 201.352 154.69C201.656 154.07 201.857 153.359 202.009 152.697L200.593 152.083ZM202.799 151.226L203.455 149.512L199.681 148.084L200.994 144.657L204.767 146.097L205.418 144.39L196.813 141.12L196.163 142.828L199.639 144.153L198.332 147.574L194.856 146.249L194.206 147.957L202.817 151.232L202.799 151.226ZM206.141 142.111L206.596 140.416L199.948 138.617L199.96 138.605L207.508 137.013L208.085 134.855L199.195 132.455L198.739 134.15L205.393 135.943L205.381 135.955L197.834 137.535L197.25 139.711L206.141 142.111ZM200.003 127.101C200.465 124.27 202.652 122.994 205.399 123.443C208.14 123.887 209.871 125.765 209.41 128.621C208.942 131.519 206.754 132.722 203.971 132.273C201.182 131.817 199.547 129.963 200.009 127.107M207.969 128.384C208.273 126.536 206.73 125.588 205.089 125.321C203.485 125.066 201.729 125.534 201.437 127.332C201.145 129.131 202.664 130.128 204.269 130.383C205.909 130.65 207.672 130.237 207.976 128.39M210.09 122.167L210.479 116.808L209.033 116.698L208.777 120.235L201.036 119.676L200.902 121.499L210.09 122.167ZM201.133 111.423C201.096 108.555 203.023 106.921 205.8 106.878C208.583 106.829 210.612 108.385 210.661 111.278C210.71 114.207 208.765 115.787 205.946 115.823C203.126 115.872 201.181 114.328 201.139 111.429M209.203 111.302C209.166 109.43 207.489 108.762 205.824 108.786C204.195 108.81 202.549 109.582 202.579 111.399C202.609 113.216 204.281 113.939 205.903 113.909C207.568 113.885 209.227 113.161 209.197 111.296M200.476 98.6622C200.336 99.4704 200.282 100.315 200.409 101.366C200.774 104.441 202.755 106.131 205.885 105.76C208.984 105.395 210.223 103.183 209.877 100.248C209.762 99.27 209.433 98.2977 209.063 97.368L204.134 97.9452L204.566 101.609L206.012 101.439L205.787 99.513L208.169 99.2335C208.285 99.5313 208.382 99.9202 208.443 100.418C208.674 102.351 207.404 103.657 205.544 103.876C203.667 104.101 202.093 103.098 201.837 100.984C201.752 100.254 201.807 99.3246 202.044 98.5893L200.482 98.6561L200.476 98.6622ZM208.467 92.7496L208.078 90.9631L204.517 91.7287L198.386 89.705L198.793 91.5949L203.041 92.9258L199.717 95.8486L200.172 97.9451L204.912 93.5092L208.473 92.7436L208.467 92.7496ZM197.152 85.6761L196.392 83.4945C195.73 81.6168 195.681 79.7087 197.76 78.9795C199.795 78.2686 201.035 79.4839 201.685 81.3374L201.94 82.0666L205.24 80.906L205.848 82.6318L197.152 85.6761ZM200.579 82.5405L200.367 81.9389C200.063 81.076 199.504 80.3954 198.495 80.7479C197.486 81.1003 197.401 81.9753 197.711 82.8686L197.924 83.4702L200.573 82.5466L200.579 82.5405ZM194.113 77.5453L193.281 75.6554L200.269 68.6673L201.083 70.5268L199.467 72.0946L200.956 75.4915L203.21 75.3761L203.97 77.108L194.107 77.5514L194.113 77.5453ZM195.402 75.8803L195.42 75.8986L199.425 75.5887L198.343 73.1459L195.396 75.8864L195.402 75.8803ZM199.212 66.8078L198.349 65.1914L191.5 68.8555L190.273 66.5463L188.991 67.233L192.315 73.4617L193.597 72.7751L192.369 70.4659L199.206 66.8017L199.212 66.8078ZM196.404 61.679L195.444 60.2084L189.683 63.9759L189.665 63.9576L193.518 57.2611L192.29 55.3895L184.597 60.433L185.557 61.9036L191.318 58.1361L191.336 58.1543L187.477 64.8448L188.705 66.7286L196.41 61.685L196.404 61.679ZM182.081 57.2244L180.787 55.6141L185.715 47.052L186.985 48.6259L185.83 50.5583L188.146 53.4448L190.291 52.746L191.476 54.2227L182.069 57.2244H182.081ZM182.895 55.2799L182.914 55.2981L186.705 53.9492L185.034 51.8648L182.895 55.2799ZM78.8667 20.0752L79.3772 21.4851C79.9181 21.2967 80.4589 21.1083 81.0058 20.926L82.3184 24.3777C82.3367 24.5539 81.65 27.0028 79.8513 27.6955C78.4476 28.2485 77.5665 27.4402 77.5665 27.4402C79.1039 26.8873 80.1733 24.9184 79.5292 23.2169C78.9093 21.5519 77.0255 20.7133 75.3544 21.327C74.1208 21.7949 73.258 22.9616 73.7137 24.1587C74.3701 25.8967 76.3572 25.4167 76.7461 25.2101L76.3267 24.098C76.0047 24.2378 75.4213 24.1162 75.2633 23.6908C75.0932 23.2412 75.2451 22.8219 75.8284 22.6031C76.8311 22.2325 77.4631 22.9009 77.773 23.7334C78.3078 25.1676 77.2748 26.2006 76.1688 26.5895C75.8407 26.711 75.549 26.7839 75.2937 26.8447L75.0446 26.3525L72.3405 27.5131L73.7381 28.2302L75.0872 27.6954C76.1688 28.9108 77.9676 29.8466 80.2524 29.0081C81.3098 28.6071 82.4643 27.8171 83.1267 26.5471L84.2388 29.5186L85.9463 28.8806L82.7437 20.3548C83.7889 20.0267 84.8341 19.7108 85.8793 19.4069L86.0677 19.3523L88.5107 28.2244L90.273 27.7383L87.8239 18.8722C90.7771 18.1066 93.7669 17.4747 96.7749 16.9825L97.176 19.1945L91.8467 20.1849C91.7859 20.197 91.1296 20.3429 91.2573 21.0174C91.3484 21.5096 93.5239 23.4664 94.1438 23.3692C94.6846 23.2902 94.5691 22.6521 94.5509 22.6096L94.3017 21.2301L97.4434 20.6407L98.4401 25.9883L100.227 25.6602L98.5554 16.6969C99.1266 16.6119 99.6978 16.5268 100.269 16.4539L100.081 14.9651C92.8371 15.8643 85.6909 17.5778 78.8424 20.0631M61.2807 24.5839L59.4942 25.5926L60.4543 27.2819L62.2409 26.2732L61.2807 24.5839ZM72.2797 28.9593C72.6018 28.3942 72.4985 27.8655 72.2068 27.2821L71.04 24.973C71.4532 24.7785 71.8603 24.578 72.2796 24.3775L71.6598 23.0163C65.0666 26.0241 58.7893 29.7855 53.0104 34.191L53.922 35.3821C55.2892 34.343 56.6869 33.3343 58.1088 32.362L59.4214 34.3066C59.4214 34.3066 59.9623 34.9325 59.2634 35.3883C58.6862 35.7711 57.2156 34.7623 57.2034 34.7502L56.5593 36.2329C56.5593 36.2329 58.3337 37.1688 59.8955 37.7825C62.1743 38.6759 64.0945 39.2593 64.131 39.2836L64.7386 37.6307C64.7022 37.6064 63.4017 37.3147 62.3869 37.0048C61.6942 36.786 60.418 36.2755 60.412 36.2573C60.4606 36.2208 61.1168 35.6618 61.3234 35.1756C61.5847 34.5741 61.3599 33.9724 61.056 33.5228L59.6219 31.3594C60.4544 30.8186 61.293 30.2838 62.1376 29.7673L63.7845 32.2406L61.3964 33.8266L62.873 34.3796L64.4894 33.298L67.1997 37.3695L68.7189 36.3607L63.7054 28.8194C65.5831 27.7195 67.4973 26.6805 69.4418 25.7204L70.4992 27.8473C70.5235 27.8837 70.961 28.5279 70.2136 28.9107C69.5999 29.2206 68.2569 28.0477 68.2447 28.0356L67.4305 29.4332C67.4305 29.4332 69.0834 30.5635 70.5661 31.3657C72.7295 32.5203 74.5586 33.3286 74.6011 33.3589L75.3911 31.779C75.3607 31.7486 74.1028 31.305 73.1366 30.8857C72.4742 30.5879 71.271 29.9316 71.2649 29.9134C71.3196 29.883 72.0427 29.4029 72.2979 28.9411M142.916 19.1285C130.847 15.1541 118.268 13.5739 105.531 14.4487L105.641 15.9436C106.419 15.895 107.196 15.8707 107.98 15.8403L108.017 19.0245C108.023 19.6747 108.801 21.9232 111.183 21.9232C112.015 21.9171 112.41 21.7895 113.036 21.3824L113.073 24.9191L114.872 24.907L114.78 15.7614C117.594 15.8283 120.395 16.0411 123.178 16.3571L123.063 18.0525L120.517 17.8155C118.998 17.6696 117.691 18.6358 117.509 20.3008C117.26 22.7133 119.259 24.9192 121.781 25.1562C123.434 25.3143 124.655 24.8221 125.719 23.5764L124.436 22.4886C123.889 23.4001 122.723 23.8619 121.957 23.8133C120.59 23.7464 119.144 22.2029 119.289 20.6837C119.374 19.7479 119.982 19.1038 120.79 19.1828L124.643 19.5474L124.922 16.5577C127.918 16.9527 130.902 17.4936 133.861 18.1682L133.43 20.4105L128.125 19.3105C128.064 19.2984 127.402 19.1829 127.262 19.8574C127.159 20.3496 128.429 22.9809 129.043 23.1328C129.571 23.2604 129.705 22.6285 129.711 22.5859L129.99 21.2126L133.12 21.8629L132.02 27.1922L133.801 27.5629L135.654 18.624C136.754 18.8975 137.86 19.1892 138.96 19.4991L136.329 28.3407L138.073 28.8573L140.728 20.0278C141.305 20.2041 141.883 20.356 142.454 20.5505L142.922 19.1224L142.916 19.1285ZM113.012 19.5472C112.933 19.7721 112.21 20.6167 111.225 20.6167C110.205 20.6045 109.816 19.8996 109.81 19.0792L109.773 15.7735C109.901 15.7674 110.04 15.7614 110.168 15.7553L110.715 15.7553C111.468 15.7432 112.222 15.7553 112.969 15.7614L113.006 19.5533L113.012 19.5472ZM16.5999 104.413C16.6424 103.763 16.6971 103.113 16.7518 102.463L15.2569 102.329C14.8255 107.026 14.7466 111.724 14.9837 116.384C14.1634 116.658 10.1527 118.201 10.3108 121.155C10.4202 123.184 11.5262 124.4 13.1183 124.4C14.4613 124.418 15.2998 123.446 15.3788 123.391L15.1783 121.659C15.1357 121.762 14.1817 122.656 13.1365 122.668C12.2554 122.698 11.6477 121.872 11.6234 120.997C11.5929 119.313 14.4186 118.262 15.087 118.043C15.6341 126.113 17.1838 134.092 19.7362 141.834L21.1642 141.366C20.6599 139.829 20.198 138.285 19.7665 136.736L19.7361 136.523L21.9845 135.879C21.9845 135.879 22.7259 135.648 22.969 136.353C23.4004 137.574 21.8023 138.82 21.7779 138.82L23.0237 139.908C23.0237 139.908 24.5125 138.261 25.5698 136.961C27.1133 135.065 28.3529 133.011 28.3893 132.974L26.9795 132.002C26.9795 132.002 26.1774 133.473 25.5819 134.335C25.1626 134.925 24.2815 135.964 24.2633 135.97C24.2572 135.927 24.0202 134.888 23.3214 134.348C22.7866 133.934 22.0756 133.965 21.7232 134.062L19.2439 134.73C19.0555 133.983 18.8732 133.217 18.703 132.464L18.6544 132.099L27.654 130.185L27.2711 128.405L18.2715 130.319L18.2168 130.215C18.0223 129.255 17.84 128.283 17.6759 127.317L19.8089 127.031C20.4105 126.952 21.1275 126.624 21.4799 126.138C21.9296 126.673 22.8168 126.782 23.5643 126.703C25.521 126.46 26.6816 124.85 26.87 122.911L28.6201 124.503L29.3797 123.185L26.8031 121.313C26.7727 121.137 26.7302 120.96 26.6876 120.796L28.9724 118.183L27.8057 117.248L26.2258 119.69C25.8247 119.01 25.2292 118.475 24.4088 118.044L23.6431 119.538C24.658 119.873 25.3629 120.894 25.4844 121.659C25.7275 122.996 25.0409 124.692 23.5278 124.892C22.592 125.014 21.8384 124.564 21.7351 123.756L21.2489 120.11L16.8007 120.705C16.6853 119.532 16.588 118.353 16.5151 117.174L25.7699 116.695L25.6788 114.878L16.436 115.333C16.3752 113.96 16.3509 112.587 16.357 111.207L16.3934 110.794C16.5271 110.612 17.3596 110.071 18.0767 110.095C19.7478 110.15 19.7053 112.028 19.5047 112.568C21.7774 112.702 23.722 110.855 23.8009 108.564C23.8313 107.707 23.6429 107.154 23.1932 106.425L25.7454 106.51L25.8062 104.687L16.606 104.395L16.5999 104.413ZM20.4712 124.339C20.5016 124.588 20.5259 124.6 20.5806 124.849C20.3922 125.062 20.0823 125.214 19.8149 125.251L18.5509 125.421L20.1612 121.999L20.4772 124.345L20.4712 124.339ZM19.3105 122.109L17.445 125.542L17.0317 122.407L19.3105 122.109ZM22.4276 108.722C22.3182 109.682 21.7227 110.375 20.799 110.618C20.5863 109.336 19.8814 108.436 18.3805 108.369C17.6026 108.345 16.8673 108.594 16.4541 108.874L16.5392 106.236L21.0724 106.382C21.6983 106.631 22.543 107.683 22.4215 108.728M47.7055 38.5358C47.1586 38.1834 43.2148 35.8073 40.7173 38.0982C39.2224 39.4715 39.0887 41.2216 40.0914 42.4673C40.924 43.5186 42.0846 43.5004 42.194 43.5247L43.4458 42.2729C43.3425 42.3155 42.1211 42.2 41.4587 41.3918C40.8874 40.7233 41.0211 39.593 41.6774 39.0097C43.2512 37.6303 46.0466 39.344 46.4841 39.6357C45.2019 40.7963 43.9562 41.9934 42.7409 43.2087C37.2841 48.7142 32.5686 54.7665 28.6432 61.2564C28.4183 61.2139 27.9018 61.0984 27.4278 60.8189C26.4495 60.2173 26.1699 59.2207 26.8262 57.9324C28.4547 54.7118 33.7232 53.3203 33.7414 53.3264L35.0844 51.5459C35.0844 51.5459 28.1933 52.7611 25.5804 57.2457C24.4198 59.2328 24.7966 61.1287 26.4495 62.1254C26.9903 62.4474 27.6223 62.5933 27.8472 62.648C27.2638 63.6567 26.6926 64.6776 26.1396 65.7046L20.4275 65.7045L20.6584 67.2723L25.5624 66.7923C22.8583 72.0243 20.6404 77.4994 18.933 83.1812L13.6766 83.2236L13.8771 84.7489L17.7602 84.4147L13.8164 86.9365L14.8799 88.1336L18.301 85.4782C17.268 89.2336 16.4174 93.0498 15.8402 96.9571L17.3229 97.1759C17.408 96.5925 17.5173 96.0213 17.6145 95.4501L20.7805 96.1004C21.3882 96.2219 23.5819 95.9607 24.1956 93.8885L24.9006 96.9512L26.4927 96.3071L24.8823 91.8285L27.5925 92.3876L27.951 90.6193L18.9513 88.79C19.2369 87.6051 19.5346 86.4322 19.8688 85.2716L28.7592 87.8422L29.2696 86.0921L20.3732 83.5519C21.0962 81.1637 21.9044 78.7999 22.8159 76.4786L23.7882 76.8675L22.7673 79.4076C22.4635 80.1611 22.8889 81.0118 23.6424 81.3157C24.6937 81.735 26.146 80.8539 26.2129 80.7506C26.4742 81.2793 26.7355 81.6378 27.3006 81.8627C28.5828 82.3792 30.0534 81.1153 30.5881 79.7784C31.2383 78.1681 30.7399 75.312 30.7156 75.2998L32.8486 76.1567L33.517 74.4917L25.0946 71.1129C25.4288 70.3897 25.763 69.6788 26.1215 68.9678L26.6744 67.8922L34.6594 72.0853L35.4979 70.4689L27.513 66.2758C28.0356 65.3035 28.5764 64.3373 29.1354 63.3894L37.0596 68.0565L37.9833 66.4887L30.0469 61.8216L30.0712 61.7973C30.8976 60.4118 31.7909 59.0567 32.7024 57.7198L34.963 59.312L34.3067 60.2356C34.3067 60.2356 34.015 60.7947 34.4404 61.0985C34.8172 61.3659 37.9953 60.6793 38.2991 60.254C38.7609 59.6341 37.9892 59.2148 37.971 59.1966L33.7719 56.1642C34.2701 55.4715 34.7806 54.7909 35.291 54.1103L42.7595 59.4762L43.7985 58.0117L36.3483 52.7127C37.9829 50.6284 39.7209 48.5988 41.5378 46.636L45.111 49.8203C45.111 49.8203 45.4756 50.9263 44.7525 51.7102C44.1813 52.3178 43.2454 52.2692 42.5831 51.6554C41.3312 50.4522 42.6256 49.0607 42.9537 48.8784L41.629 48.2342C41.629 48.2342 39.095 50.8532 41.465 52.968C42.9052 54.2502 44.6492 54.0132 45.7673 52.7615C46.2352 52.2328 46.4357 51.7649 46.5147 51.0782L48.3925 52.7494L49.5896 51.4064L45.7004 47.9426C45.67 47.9122 45.2628 46.5449 45.8644 45.8704C46.3809 45.2931 47.2317 45.439 47.7907 45.9373C48.915 46.94 48.8178 49.0304 48.7995 49.0486L50.4281 48.7327C50.4281 48.7327 50.4584 45.9313 48.9088 44.5518C47.7482 43.5248 46.0041 43.6403 44.9529 44.7887C44.1447 45.6942 44.3088 46.6725 44.2905 46.6908L42.7713 45.3417C43.1116 45.0014 43.4276 44.6368 43.7679 44.2965C45.044 43.0204 46.3565 41.7686 47.6934 40.5533L53.8189 47.4202L55.174 46.2109L49.0546 39.3501C49.5772 38.9005 50.0876 38.4508 50.6163 38.0194L49.65 36.8708C48.9877 37.4238 48.3253 37.9889 47.6751 38.5662M22.33 91.318C22.5427 91.4456 23.2172 92.3268 22.9985 93.2869C22.7737 94.2895 22.0019 94.5144 21.1998 94.3442L17.9487 93.6818L18.5867 90.5401L22.3422 91.3059L22.33 91.318ZM29.002 74.6192C29.002 74.6192 30.0776 77.5057 29.3606 79.1099C29.1965 79.5171 28.6739 80.3192 27.9326 80.0275C27.2337 79.7419 27.0393 79.2193 27.5132 78.0526C27.6712 77.6636 28.0054 77.1714 28.048 77.1167L26.7172 76.9405C26.4802 77.299 26.3343 77.5542 26.1703 77.9614C25.9758 78.4232 25.909 78.7331 25.7996 79.2071C25.7996 79.28 25.356 80.0882 24.6754 79.8208C24.1954 79.6203 24.2622 79.3347 24.3898 79.0248L25.6719 75.8223L23.4296 74.9412C23.7273 74.2059 24.0433 73.4888 24.3532 72.7657L28.9898 74.6192L29.002 74.6192ZM41.522 172.747L37.5478 175.992L37.955 176.496L41.9291 173.251L41.522 172.747ZM44.7305 170.134L40.9325 173.227L41.3397 173.731L45.1376 170.638L44.7305 170.134ZM39.9177 170.729L35.8585 173.865L36.2474 174.375L40.3066 171.24L39.9177 170.729ZM43.193 168.208L39.31 171.203L39.6989 171.714L43.5819 168.718L43.193 168.208ZM45.2957 176.995L41.668 180.622L42.1237 181.078L45.7515 177.45L45.2957 176.995ZM48.2186 174.072L44.7549 177.535L45.2107 177.991L48.6743 174.527L48.2186 174.072ZM43.3754 174.928L39.5714 178.368L40.0029 178.848L43.8069 175.409L43.3754 174.928ZM46.4563 172.164L42.8164 175.451L43.2478 175.931L46.8877 172.644L46.4563 172.164ZM38.362 168.675L34.2238 171.708L34.6005 172.23L38.7388 169.198L38.3559 168.681L38.362 168.675ZM41.7102 166.239L37.7543 169.137L38.1372 169.654L42.0931 166.755L41.7102 166.239ZM36.861 166.579L32.6438 169.496L33.0145 170.024L37.2317 167.108L36.861 166.579ZM40.27 164.239L36.2412 167.029L36.6119 167.557L40.6407 164.768L40.27 164.239ZM35.4208 164.434L31.1306 167.253L31.4831 167.788L35.7732 164.969L35.4208 164.434ZM38.8966 162.198L34.7949 164.889L35.1473 165.424L39.2491 162.732L38.8966 162.198ZM34.0352 162.27L29.6661 164.974L30.0064 165.521L34.3755 162.817L34.0352 162.27ZM37.5718 160.119L33.3972 162.702L33.7375 163.249L37.9122 160.666L37.5718 160.119ZM32.7044 160.065L28.2684 162.653L28.5905 163.206L33.0264 160.617L32.7044 160.065ZM36.3018 158.011L32.0663 160.484L32.3884 161.037L36.6238 158.564L36.3018 158.011ZM31.4282 157.816L26.9315 160.295L27.2414 160.86L31.7381 158.381L31.4282 157.816ZM35.0864 155.872L30.7841 158.241L31.094 158.807L35.3963 156.437L35.0864 155.872ZM30.2614 155.604L25.6371 157.846L25.9166 158.43L30.541 156.187L30.2614 155.604ZM33.9621 153.751L29.5444 155.896L29.8239 156.479L34.2417 154.334L33.9621 153.751ZM29.1129 153.301L24.4338 155.428L24.7012 156.011L29.3803 153.884L29.1129 153.301ZM32.8683 151.551L28.3958 153.581L28.6632 154.164L33.1357 152.134L32.8683 151.551ZM28.019 150.968L23.2853 152.979L23.5405 153.574L28.2742 151.563L28.019 150.968ZM31.8291 149.321L27.308 151.241L27.5633 151.836L32.0843 149.916L31.8291 149.321ZM26.992 148.616L22.2096 150.506L22.4466 151.107L27.229 149.217L26.992 148.616ZM30.8446 147.072L26.2689 148.877L26.5059 149.479L31.0816 147.674L30.8446 147.072ZM26.0318 146.234L21.2008 148.002L21.4196 148.61L26.2506 146.841L26.0318 146.234ZM29.9209 144.787L25.2965 146.483L25.5214 147.084L30.1458 145.389L29.9209 144.787ZM154.723 24.6404L154.152 24.3487L151.812 28.9123L152.383 29.2039L154.723 24.6404ZM152.73 28.5173L152.159 28.2256L149.929 32.5826L150.5 32.8743L152.73 28.5173ZM157.117 25.9044L156.552 25.5944L154.097 30.0912L154.662 30.4011L157.117 25.9044ZM155.021 29.7266L154.456 29.4167L152.11 33.719L152.675 34.0289L155.021 29.7266ZM149.09 22.0576L148.488 21.8206L146.623 26.603L147.224 26.84L149.09 22.0576ZM147.498 26.1169L146.896 25.8799L145.116 30.4435L145.717 30.6805L147.498 26.1169ZM151.915 23.2791L151.326 23.0178L149.217 27.6908L149.807 27.9521L151.915 23.2791ZM150.117 27.2533L149.527 26.992L147.516 31.4583L148.105 31.7196L150.117 27.2533ZM159.481 27.2352L158.928 26.9132L156.352 31.3491L156.905 31.6712L159.481 27.2352ZM157.287 30.9967L156.734 30.6746L154.28 34.9161L154.833 35.2382L157.287 30.9967ZM161.821 28.6147L161.274 28.2744L158.588 32.6374L159.135 32.9777L161.821 28.6147ZM159.512 32.3215L158.965 31.9812L156.4 36.1497L156.947 36.4901L159.512 32.3215ZM164.106 30.061L163.571 29.7085L160.769 34.0047L161.304 34.3572L164.106 30.061ZM161.705 33.7009L161.164 33.3545L158.485 37.4685L159.026 37.8148L161.705 33.7009ZM166.36 31.562L165.825 31.1974L162.915 35.4207L163.449 35.7853L166.36 31.562ZM163.85 35.1412L163.316 34.7765L160.539 38.8175L161.073 39.1821L163.85 35.1412ZM168.572 33.1298L168.049 32.7531L165.029 36.9034L165.552 37.2802L168.572 33.1298ZM165.971 36.63L165.449 36.2532L162.562 40.2213L163.085 40.5981L165.971 36.63ZM170.741 34.7402L170.231 34.3513L167.108 38.4227L167.618 38.8116L170.741 34.7402ZM168.043 38.1796L167.533 37.7907L164.543 41.6919L165.054 42.0808L168.043 38.1796ZM172.917 36.4661L172.425 36.0468L169.095 39.9601L169.587 40.3794L172.917 36.4661ZM170.122 39.8204L169.629 39.4011L166.445 43.1443L166.938 43.5636L170.122 39.8204ZM174.989 38.198L174.509 37.7665L171.076 41.5887L171.556 42.0202L174.989 38.198ZM172.109 41.4794L171.629 41.0479L168.347 44.7061L168.827 45.1375L172.109 41.4794ZM177.025 39.9785L176.557 39.5349L173.033 43.2781L173.5 43.7217L177.025 39.9785ZM174.053 43.1809L173.586 42.7373L170.213 46.3164L170.681 46.76L174.053 43.1809ZM179.006 41.8137L178.55 41.358L174.929 45.0161L175.384 45.4719L179.006 41.8137ZM175.943 44.9371L175.488 44.4813L172.024 47.9693L172.48 48.4251L175.943 44.9371ZM180.495 43.2296L176.782 46.7966L177.226 47.2645L180.938 43.6976L180.495 43.2296ZM177.341 46.274L173.792 49.6769L174.236 50.1449L177.785 46.742L177.341 46.274ZM168.21 166.818L170.276 164.631L167.341 163.932L168.198 166.818L168.21 166.818ZM170.665 164.242L172.646 161.921L169.62 161.374L170.665 164.242ZM172.925 161.507L174.797 159.15L171.801 158.73L172.932 161.501L172.925 161.507ZM175.125 158.761L176.851 156.257L173.873 156.026L175.125 158.761ZM177.13 155.844L178.802 153.334L175.751 153.14L177.13 155.844ZM179.093 152.86L180.612 150.247L177.574 150.235L179.093 152.86ZM180.843 149.761L182.247 147.118L179.239 147.233L180.843 149.761ZM182.484 146.638L183.73 143.897L180.752 144.14L182.484 146.638ZM183.96 143.423L185.097 140.658L182.083 141.071L183.96 143.423ZM185.279 140.16L186.3 137.365L183.316 137.906L185.279 140.16ZM186.488 136.824L187.406 133.95L184.446 134.612L186.476 136.824L186.488 136.824ZM187.521 133.494L188.293 130.522L185.352 131.373L187.527 133.5L187.521 133.494ZM188.414 130.012L189.059 127.071L186.16 127.988L188.414 130.012ZM189.168 126.56L189.642 123.583L186.828 124.634L189.168 126.56ZM189.709 123.054L190.067 120.046L187.284 121.225L189.703 123.048L189.709 123.054ZM190.134 119.53L190.371 116.546L187.685 117.81L190.134 119.53ZM190.432 116.023L190.498 113.003L187.843 114.395L190.432 116.023ZM190.505 112.474L190.462 109.43L187.879 111.016L190.505 112.474ZM190.468 108.889L190.298 105.875L187.764 107.534L190.474 108.895L190.468 108.889ZM190.231 105.383L189.933 102.399L187.49 104.137L190.231 105.383ZM189.878 101.846L189.398 98.8746L187.047 100.752L189.878 101.846ZM189.295 98.3095L188.742 95.3744L186.433 97.3311L189.295 98.3095ZM188.626 94.8822L187.903 91.9106L185.734 94.0071L188.62 94.8761L188.626 94.8822ZM187.77 91.461L186.919 88.5198L184.853 90.7074L187.77 91.461ZM186.749 87.9972L185.764 85.1411L183.795 87.4138L186.749 87.9972ZM185.576 84.6853L184.464 81.8596L182.598 84.2113L185.588 84.6853H185.576ZM184.269 81.3978L183.029 78.6025L181.261 81.0392L184.269 81.3978ZM182.847 78.1406L181.468 75.4364L179.791 77.9522L182.841 78.1467L182.847 78.1406ZM181.212 75.0111L179.76 72.3433L178.186 74.9502L181.206 75.0172L181.212 75.0111ZM179.505 71.9301L177.919 69.3475L176.46 71.9726L179.505 71.9301ZM177.603 68.9099L175.889 66.3577L174.583 69.0861L177.603 68.9099ZM175.567 65.987L173.768 63.5319L172.565 66.3394L175.567 65.987ZM171.562 60.8034L170.469 63.6352L173.44 63.1552L171.556 60.7974L171.562 60.8034ZM169.15 58.1478L168.232 61.0221L171.179 60.4206L169.156 58.1539L169.15 58.1478ZM166.658 55.6442L165.905 58.561L168.834 57.7711L166.658 55.6442ZM166.324 55.2735L164.07 53.2499L163.425 56.191L166.324 55.2735ZM163.687 52.8549L161.347 50.9285L160.818 53.9L163.687 52.8549ZM160.952 50.5943L158.588 48.7773L158.169 51.7731L160.952 50.5943ZM158.126 48.437L155.684 46.7233L155.434 49.7556L158.132 48.4309L158.126 48.437ZM155.216 46.4255L152.688 44.8091L152.566 47.8231L155.216 46.4255ZM152.22 44.5234L149.607 43.0042L149.649 46.0487L152.214 44.5174L152.22 44.5234ZM149.181 42.7854L146.471 41.4242L146.641 44.4383L149.181 42.7733L149.181 42.7854ZM145.985 41.1933L143.25 39.9414L143.554 42.9312L145.991 41.1872L145.985 41.1933ZM142.77 39.7165L140.005 38.5801L140.358 41.5821L142.77 39.7165ZM139.562 38.4161L136.7 37.4376L137.253 40.3727L139.562 38.4161ZM136.153 37.2432L133.266 36.3741L133.989 39.3457L136.159 37.2371L136.153 37.2432ZM132.81 36.2708L129.839 35.499L130.696 38.3855L132.81 36.2708ZM129.334 35.3836L126.393 34.7394L127.311 37.638L129.334 35.3836ZM125.865 34.6725L122.881 34.2045L123.932 37.0181L125.859 34.6786L125.865 34.6725ZM122.364 34.1377L119.356 33.7791L120.535 36.5623L122.364 34.1377ZM118.84 33.7123L115.844 33.536L117.163 36.228L118.834 33.7062L118.84 33.7123ZM115.321 33.4752L112.301 33.4083L113.748 36.0821L115.315 33.4813L115.321 33.4752ZM111.767 33.3961L108.771 33.4629L110.302 36.0273L111.76 33.4022L111.767 33.3961ZM108.23 33.5054L105.216 33.6755L106.875 36.2096L108.236 33.4994L108.23 33.5054ZM104.663 33.7302L101.661 34.0826L103.472 36.4769L104.663 33.7302ZM101.169 34.1494L98.1972 34.6294L100.081 36.9873L101.175 34.1555L101.169 34.1494ZM97.632 34.7327L94.6909 35.3404L96.7145 37.607L97.632 34.7327ZM94.1865 35.4558L91.2758 36.191L93.3784 38.3544L94.1865 35.4558ZM90.7653 36.3126L87.885 37.1754L90.0727 39.2415L90.7714 36.3065L90.7653 36.3126ZM87.3624 37.3455L84.5124 38.336L86.7791 40.311L87.3685 37.3516L87.3624 37.3455ZM83.9837 38.5608L81.2128 39.6911L83.5766 41.508L83.9777 38.5669L83.9837 38.5608ZM80.7509 39.8733L78.0103 41.1312L80.4471 42.9117L80.7509 39.8855L80.7509 39.8733ZM77.5364 41.3742L74.8261 42.7597L77.3602 44.3701L77.5364 41.3742ZM74.3461 42.9967L71.7392 44.4611L74.3583 45.9743L74.3522 43.0027L74.3461 42.9967ZM71.247 44.7589L68.7252 46.357L71.4233 47.779L71.247 44.7589ZM68.2998 46.673L65.8023 48.4048L68.5429 49.6506L68.2998 46.673ZM65.3769 48.66L62.9645 50.5256L65.7902 51.6741L65.3769 48.66ZM62.5938 50.8476L60.2847 52.8043L63.08 53.8252L62.5999 50.8537L62.5938 50.8476ZM59.8532 53.1142L57.6413 55.1438L60.5217 56.0675L59.8593 53.1081L59.8532 53.1142ZM57.2524 55.5327L55.1378 57.6474L58.0425 58.4617L57.2524 55.5327ZM54.7549 58.0302L52.7314 60.2846L55.6726 60.9288L54.7549 58.0302ZM52.3911 60.6857L50.4648 63.0252L53.4485 63.4932L52.3911 60.6857ZM50.1306 63.4202L48.3016 65.8448L51.3096 66.2033L50.1245 63.4262L50.1306 63.4202ZM48.0281 66.2519L46.3024 68.7555L49.2861 68.9925L48.0342 66.2458L48.0281 66.2519ZM46.0228 69.1687L44.3943 71.7574L47.4145 71.8243L46.0228 69.1687ZM44.1209 72.1645L42.6504 74.8504L45.7009 74.8018L44.127 72.1584L44.1209 72.1645ZM42.4316 75.2758L41.0705 77.986L44.0906 77.8098L42.4377 75.2697L42.4316 75.2758ZM40.8335 78.466L39.5878 81.2066L42.5776 80.9028L40.8396 78.46L40.8335 78.466ZM39.4055 81.7049L38.2571 84.5306L41.2893 84.0627L39.4116 81.711L39.4055 81.7049ZM38.0869 85.0167L37.1086 87.8788L40.1105 87.2834L38.0869 85.0167ZM36.981 88.3832L36.1121 91.2697L39.0228 90.5344L36.9749 88.3771L36.981 88.3832ZM38.1661 93.907L35.9906 91.7801L35.2371 94.6969L38.1661 93.907ZM35.1156 95.2074L34.5262 98.1667L37.4248 97.2492L35.1156 95.2074ZM34.4715 98.6833L34.0037 101.667L36.8111 100.61L34.4715 98.6833ZM33.9307 102.19L33.627 105.216L36.3554 104.019L33.9307 102.19ZM33.5601 105.732L33.3961 108.667L36.0942 107.343L33.5662 105.726L33.5601 105.732ZM33.3779 109.257L33.3293 112.222L35.9423 110.764L33.384 109.263L33.3779 109.257ZM33.3172 112.757L33.4327 115.765L35.9485 114.222L33.3172 112.757ZM33.4267 116.294L33.6516 119.326L36.143 117.6L33.4145 116.294L33.4267 116.294ZM33.7184 119.818L34.0709 122.82L36.4651 121.009L33.7184 119.818ZM34.1195 123.367L34.5997 126.339L36.9635 124.4L34.1195 123.367ZM34.7212 126.849L35.3836 129.808L37.5955 127.779L34.7151 126.855L34.7212 126.849ZM35.5052 130.307L36.2405 133.217L38.4099 131.109L35.5052 130.295L35.5052 130.307ZM36.4107 133.74L37.2676 136.627L39.3336 134.439L36.3985 133.74L36.4107 133.74ZM37.4499 137.137L38.4526 139.938L40.4214 137.666L37.4499 137.137ZM38.6835 140.473L39.8078 143.238L41.6794 140.88L38.6835 140.461L38.6835 140.473ZM40.0508 143.712L41.3027 146.447L43.0163 143.992L40.0508 143.7L40.0508 143.712ZM41.5458 146.933L42.9253 149.637L44.5538 147.048L41.5458 146.933ZM43.1683 150.111L44.7058 152.681L46.2189 150.062L43.1683 150.111ZM44.9489 153.155L46.6018 155.696L47.963 152.985L44.9428 153.162L44.9489 153.155ZM46.8631 156.115L48.6619 158.57L49.9076 155.829L46.8631 156.115ZM48.9718 159.001L50.7827 161.396L51.9312 158.57L48.9718 159.001ZM53.1041 164.155L54.0824 161.292L51.1473 161.845L53.098 164.161L53.1041 164.155ZM55.5166 166.749L56.3855 163.863L53.4262 164.525L55.5166 166.749ZM58.0324 169.192L58.792 166.282L55.863 167.071L58.0324 169.192ZM58.4153 169.587L60.6698 171.611L61.2713 168.603L58.4153 169.587ZM61.0648 171.945L63.3618 173.805L63.8905 170.833L61.0648 171.945ZM63.8237 174.145L66.2423 175.968L66.6007 172.96L63.8237 174.145ZM66.6494 176.254L69.1531 177.979L69.3475 174.929L66.6494 176.254ZM69.5663 178.259L72.1733 179.833L72.24 176.813L69.5724 178.265L69.5663 178.259ZM72.6412 180.119L75.2846 181.522L75.2238 178.533L72.6412 180.119ZM75.7464 181.814L78.4688 183.115L78.2379 180.088L75.7464 181.814ZM78.9489 183.352L81.7017 184.549L81.3431 181.541L78.9489 183.352ZM82.1818 184.774L85.0136 185.867L84.5334 182.896L82.1818 184.774ZM85.4572 186.031L88.3315 186.949L87.7237 184.008L85.4572 186.031ZM88.8298 187.131L91.7892 187.952L90.9991 185.023L88.8298 187.131ZM92.2753 188.134L95.2165 188.778L94.2988 185.88L92.2753 188.134ZM95.7269 188.9L98.6802 189.483L97.6957 186.627L95.7269 188.9ZM99.2028 189.544L102.187 190.024L101.074 187.199L99.2028 189.544ZM105.62 190.359L104.429 187.636L102.709 190.085L105.62 190.359ZM109.205 190.553L107.826 187.849L106.155 190.371L109.199 190.559L109.205 190.553ZM112.699 190.62L111.253 187.958L109.734 190.571L112.699 190.62ZM116.315 190.468L114.711 187.94L113.252 190.565L116.315 190.468ZM116.789 190.456L119.821 190.231L118.089 187.734L116.783 190.462L116.789 190.456ZM120.313 190.177L123.328 189.763L121.517 187.369L120.313 190.177ZM123.874 189.703L126.803 189.156L124.907 186.859L123.868 189.709L123.874 189.703ZM127.35 189.107L130.304 188.439L128.274 186.227L127.35 189.107ZM130.814 188.329L133.743 187.539L131.586 185.358L130.814 188.329ZM134.26 187.363L137.097 186.434L134.904 184.422L134.26 187.363ZM137.602 186.306L140.415 185.255L138.076 183.328L137.602 186.306ZM140.932 185.079L143.715 183.9L141.29 182.071L140.932 185.079ZM144.189 183.657L146.942 182.35L144.432 180.618L144.189 183.657ZM147.422 182.101L150.077 180.709L147.489 179.081L147.422 182.101ZM150.49 180.454L153.116 178.935L150.503 177.416L150.497 180.448L150.49 180.454ZM153.547 178.625L156.069 177.027L153.371 175.605L153.541 178.619L153.547 178.625ZM156.5 176.705L159.01 174.925L156.215 173.661L156.5 176.705ZM159.387 174.596L161.799 172.731L158.967 171.637L159.393 174.59L159.387 174.596ZM162.176 172.403L164.485 170.458L161.623 169.48L162.17 172.409L162.176 172.403ZM164.874 170.069L167.031 168.022L164.145 167.153L164.88 170.063L164.874 170.069ZM103.875 149.796L102.812 149.693L103.273 147.116C103 147.22 102.806 147.268 102.52 147.359C102.228 147.457 102.022 147.493 101.742 147.566L101.311 149.735L100.302 149.577L100.746 147.736C100.746 147.736 99.8036 147.839 99.281 147.268C98.7766 146.703 98.8617 145.852 99.3964 145.305C99.9555 144.734 100.867 144.625 101.463 145.172C101.9 145.573 101.943 146.454 101.876 146.654C102.18 146.594 102.368 146.563 102.672 146.466C102.951 146.369 103.152 146.302 103.425 146.174L103.571 145.397L104.404 146.229L103.881 149.79L103.875 149.796ZM100.916 146.922C100.976 146.849 101.116 146.308 100.715 145.943C100.508 145.761 100.186 145.743 99.992 145.937C99.7368 146.193 99.7003 146.496 99.9312 146.727C100.272 147.068 100.897 146.94 100.916 146.922ZM100.928 143.956L101.997 142.887L102.629 143.519L101.56 144.588L100.928 143.956ZM101.493 144.643L102.082 144.054L106.239 148.21L107.065 147.384L102.909 143.227L103.377 142.759L102.745 142.127L100.861 144.011L101.493 144.643ZM102.222 142.662L107.138 137.746L107.77 138.378L107.296 138.852L111.453 143.009L110.632 143.829L108.518 141.714L107.126 143.106L107.679 143.659C107.679 143.659 107.971 143.987 107.734 144.224C107.497 144.461 105.534 144.333 105.333 144.133C105.133 143.932 105.394 143.61 105.406 143.598L105.728 143.276L104.312 141.86L102.866 143.306L102.234 142.674L102.222 142.662ZM106.476 139.66L105.084 141.052L106.5 142.468L107.892 141.076L106.476 139.66ZM106.694 138.19L107.326 138.822L108.378 137.77L112.534 141.927L113.355 141.107L109.198 136.95L109.672 136.476L109.04 135.844L106.694 138.19ZM116.356 135.528C115.737 134.884 114.74 135.127 113.671 135.151C112.789 135.17 111.69 135.419 111.422 135.151C111.264 134.993 111.367 134.769 111.38 134.756L113.282 132.854L112.65 132.222L110.486 134.386C110.085 134.787 110.255 135.516 110.577 135.838C111.361 136.622 111.981 136.269 113.537 136.197C114.388 136.16 115.135 135.96 115.566 136.391C115.937 136.762 116.065 137.266 115.639 137.692C115.062 138.269 113.33 138.311 113.282 138.263L113.318 139.235C113.47 139.29 115.129 139.332 116.132 138.33C117.134 137.327 117.098 136.306 116.338 135.522M113.537 132.599L117.013 129.123L118.04 130.15L115.591 132.599C115.591 132.599 115.269 132.946 115.579 133.255C115.81 133.486 117.657 133.729 117.949 133.462C118.21 133.225 117.912 132.927 117.9 132.915L117.268 132.283L118.714 130.837L121.169 133.292L121.99 132.472L117.833 128.315L118.301 127.847L117.669 127.215L112.899 131.985L113.531 132.617L113.537 132.599ZM117.827 128.309L121.011 125.125L123.077 127.191C123.126 127.24 123.363 128.06 122.816 128.583C122.403 128.971 121.807 129.008 121.327 128.528C120.847 128.048 120.817 127.446 121.224 127.039C121.564 126.699 121.935 126.693 121.935 126.693L121.206 126.134C120.914 126.267 120.744 126.377 120.513 126.608C119.747 127.373 119.735 128.552 120.501 129.318C121.394 130.211 122.652 130.035 123.436 129.19C123.971 128.619 123.964 128.127 123.964 128.066L125.174 129.275L125.994 128.455L121.837 124.298L122.311 123.824L121.679 123.192L117.195 127.677L117.827 128.309ZM125.842 120.294L125.21 119.662L121.157 123.715L121.789 124.347L124.432 121.704L125.49 122.761C125.49 122.761 125.848 123.095 125.52 123.46C124.973 124.092 123.782 123.569 123.776 123.563L123.569 124.584C123.569 124.584 124.943 124.912 126 125.107C127.544 125.374 129.063 125.435 129.093 125.441L129.196 124.353C129.196 124.353 128.127 124.365 127.458 124.292C126.991 124.25 126.14 124.08 126.134 124.074C126.152 124.055 126.668 123.6 126.754 123.041C126.814 122.615 126.583 122.226 126.419 122.062L125.246 120.889L125.848 120.288L125.842 120.294ZM125.076 121.06L128.704 117.432L129.482 118.21L127.452 120.239C127.191 120.501 126.905 121.333 127.653 122.044C128.747 123.077 131.469 122.968 131.499 122.937L131.578 121.898C131.536 121.941 129.403 122.068 128.443 121.291C127.993 120.902 128.412 120.519 128.437 120.495L130.108 118.823L132.867 121.582L133.693 120.756L129.537 116.599L130.017 116.119L129.385 115.487L124.456 120.415L125.088 121.047L125.076 121.06ZM132.04 112.844L132.672 113.476L136.725 109.423L138.348 111.045C138.396 111.094 138.743 112.765 138.099 113.409C137.752 113.756 137.4 113.731 137.096 113.427C136.592 112.923 136.816 111.811 136.847 111.781L137.521 111.106L136.914 110.498L134.1 113.312L134.714 113.926L135.85 112.789C135.826 112.923 135.82 113.731 136.342 114.254C136.974 114.886 137.91 114.801 138.627 114.084C139.278 113.434 139.423 112.206 139.405 112.091L140.876 113.561L141.696 112.741L137.54 108.584L138.007 108.116L137.375 107.484L132.028 112.832L132.04 112.844ZM136.245 108.639L136.792 108.092L133.559 106.597L133.28 107.74L136.251 108.633L136.245 108.639ZM107.8 137.084L108.347 136.537L105.114 135.042L104.835 136.184L107.8 137.084ZM138.633 107.503L137.716 108.42L137.084 107.788L141.927 102.945L142.559 103.577L141.641 104.495L143.671 106.524L142.012 108.183C141.635 108.56 141.708 109.107 142.14 109.538C142.826 110.225 143.944 109.921 144.54 109.265C144.874 108.919 145.123 108.159 144.892 107.515L145.956 107.327C146.138 108.347 145.877 109.156 145.135 109.897C143.993 111.039 142.322 111.349 141.234 110.249C140.906 109.897 140.62 109.405 140.712 108.973C140.329 108.979 139.885 108.742 139.612 108.469L138.645 107.503H138.633ZM142.291 106.701L139.94 107.205L140.517 107.782C140.639 107.904 140.839 108.007 141.015 108.025C141.131 107.898 141.119 107.886 141.234 107.77L142.298 106.707L142.291 106.701ZM139.441 106.694L141.903 106.312L140.863 105.273L139.441 106.694ZM141.738 104.397L142.784 103.352L146.94 107.509L147.761 106.689L143.604 102.532L144.072 102.064L143.44 101.432L141.106 103.765L141.738 104.397ZM143.045 101.839L147.979 96.905L148.611 97.537L148.131 98.017L152.288 102.174L151.467 102.994L150.319 101.845C150.203 102.374 150.057 102.714 149.669 103.103C148.629 104.142 146.922 104.148 145.925 103.091C146.26 102.927 147.104 102.07 146.345 101.311C146.029 100.995 145.397 100.885 145.257 100.903L143.689 102.471L143.057 101.839H143.045ZM147.305 98.8313L146.114 100.022C146.43 100.071 146.879 100.278 147.226 100.624C147.9 101.311 147.827 102.04 147.365 102.72C147.906 103.018 148.484 102.951 148.952 102.556C149.462 102.131 149.529 101.274 149.346 100.873L147.299 98.8252L147.305 98.8313ZM105.535 179.202L106.537 178.199L97.3308 168.993L111.903 172.833L113.428 171.308L102.593 160.473L101.59 161.476L110.323 170.208L110.268 170.263L96.4861 166.58L93.0649 170.001L93.3809 170.317C95.0095 169.211 95.2222 168.901 96.7475 170.427L105.529 179.208L105.535 179.202ZM117.086 167.65L118.873 165.863L107.983 154.974L104.562 158.395L104.927 158.759C106.719 157.392 106.98 157.544 108.354 158.917L117.086 167.65ZM124.22 160.516L126.013 158.723L115.913 148.624L117.013 147.524C118.277 146.26 119.122 146.156 120.386 147.42L120.86 146.947L118.435 144.631L110.122 152.944L112.389 155.308L112.857 154.84C111.811 153.576 111.751 152.786 113.015 151.522L114.114 150.422L124.214 160.522L124.22 160.516ZM162.424 122.312L163.421 121.316L154.214 112.109L154.269 112.054L168.786 115.95L170.312 114.425L159.476 103.59L158.474 104.592L167.206 113.325L167.152 113.379L153.369 109.697L149.954 113.112L150.27 113.428C151.905 112.316 152.112 112.012 153.637 113.537L162.418 122.318L162.424 122.312ZM132.326 141.265L133.171 140.42C134.435 139.156 135.122 137.631 133.171 135.68C131.384 133.894 130.12 134.416 128.698 135.838C127.805 136.732 128.121 137.048 128.753 137.68L132.332 141.259L132.326 141.265ZM127.434 139.946C125.854 138.366 125.806 138.415 124.019 139.679L123.703 139.363L128.753 134.313C130.752 132.314 133.067 132.101 134.963 133.997C138.014 137.048 135.596 139.466 133.596 141.466L133.068 141.994L137.905 146.831L136.112 148.624L127.434 139.946ZM141.168 135.365L144.747 131.785L138.172 128.893L141.168 135.365ZM137.23 129.944C137.072 129.579 136.647 128.838 136.543 128.735C135.857 128.048 135.273 128.631 134.489 129.209L134.173 128.893L137.224 125.842L152.003 132.734L150.319 134.417L145.744 132.259L141.642 136.361L143.799 140.937L142.797 141.94L137.224 129.95L137.23 129.944ZM154.992 129.744L156.724 128.012L146.624 117.912L147.73 116.806C148.994 115.542 149.894 115.384 151.158 116.648L151.577 116.229L149.152 113.914L140.894 122.172L143.155 124.542L143.629 124.068C142.529 122.859 142.474 122.063 143.787 120.75L144.893 119.644L154.992 129.744ZM170.336 106.197L173.915 102.618L167.34 99.725L170.336 106.197ZM166.392 100.782C166.234 100.418 165.857 99.6277 165.754 99.5244C165.067 98.8377 164.441 99.4636 163.706 99.9923L163.39 99.6763L166.44 96.6258L181.164 103.572L179.536 105.2L174.96 103.043L170.804 107.199L172.961 111.775L171.958 112.778L166.392 100.782ZM124.974 146.612L124.974 149.213L127.574 149.213L127.574 146.612L124.974 146.612ZM105.685 105.144C102.513 108.316 102.513 113.481 105.685 116.654C108.857 119.826 114.017 119.832 117.195 116.654C120.373 113.476 120.361 108.323 117.188 105.151C114.016 101.978 108.851 101.978 105.685 105.144ZM159.324 77.3563L159.032 77.3563L159.324 77.3563ZM187.443 186.003C187.206 186.24 186.969 186.489 186.732 186.726C186.21 187.249 185.675 187.771 185.14 188.282L186.744 186.751L186.732 186.738L187.443 186.003ZM174.239 197.433C173.832 197.731 173.418 198.023 173.005 198.314L173.88 197.707L174.233 197.427L174.239 197.433ZM179.276 193.514L180.546 192.475L182.704 190.561C181.579 191.575 180.431 192.554 179.282 193.508L179.276 193.514ZM170.732 199.882C170.532 200.022 170.331 200.162 170.125 200.295L170.392 200.125L170.726 199.888L170.732 199.882ZM184.575 188.823C183.98 189.382 183.39 189.935 182.789 190.475L183.712 189.661L184.575 188.823ZM178.043 194.516C177.563 194.899 177.083 195.294 176.59 195.665L177.271 195.154L178.043 194.516ZM167.111 202.203C166.807 202.386 166.509 202.574 166.205 202.756L166.837 202.392L167.117 202.197L167.111 202.203ZM150.163 210.583L151.694 209.999L152.369 209.702C151.64 210.006 150.904 210.291 150.169 210.577L150.163 210.583ZM155.99 208.122C155.589 208.304 155.188 208.486 154.781 208.663L155.583 208.322L155.99 208.122ZM159.722 206.323C159.46 206.451 159.199 206.591 158.938 206.718L159.418 206.493L159.728 206.317L159.722 206.323ZM163.222 204.476C162.973 204.616 162.717 204.749 162.468 204.889L163.161 204.525L163.222 204.476ZM187.459 37.7485L184.432 34.783L181.285 31.939L178.033 29.2227L174.673 26.64L171.215 24.191L167.63 21.8696L164.014 19.7244L160.283 17.7069L156.479 15.8473L152.578 14.1215L148.658 12.584L144.66 11.1862L140.6 9.95864L136.511 8.89514L132.372 7.98963L128.185 7.25426L123.956 6.68296L119.727 6.28181L115.546 6.05081L111.31 5.98389L107.069 6.09318L102.833 6.36657L98.622 6.81007L94.4351 7.42376L90.2665 8.20149L86.1343 9.14939L82.0508 10.2553L78.0098 11.5252L74.0234 12.9593L70.0979 14.5513L66.2331 16.3013L62.4473 18.2033L58.7406 20.2572L55.1188 22.4569L51.5822 24.8024L48.1489 27.2878L44.8128 29.9068L41.58 32.6534L38.4688 35.5337L35.473 38.5295L32.5927 41.6408L29.8461 44.8735L27.227 48.2096L24.7417 51.6551L22.3962 55.1917L20.1904 58.8195L18.1426 62.5323L16.2346 66.3242L14.4845 70.189L12.8864 74.1206L11.4463 78.113L10.1703 82.1601L9.05829 86.2497L8.1104 90.3819L7.33266 94.5505L6.71291 98.7435L6.26331 102.961L5.98994 107.196L5.88064 111.438L5.94149 115.679L6.16641 119.915L6.56756 124.132L7.13885 128.337L7.87422 132.512L8.77366 136.656L9.84325 140.764L11.0769 144.818L12.4686 148.822L14.0182 152.766L15.7259 156.649L17.5854 160.453L19.5969 164.178L21.7603 167.824L24.0634 171.379L26.5064 174.843L29.089 178.204L31.7993 181.461L34.6372 184.602L37.6028 187.629L40.6898 190.533L43.8862 193.317L47.192 195.966L50.6072 198.482L54.1136 200.858L57.711 203.094L61.3936 205.185L65.1612 207.13L69.0017 208.916L72.9091 210.551L76.8773 212.028L80.9001 213.34L84.9776 214.489L89.1038 215.48L93.2542 216.3L97.435 216.956L101.64 217.443L105.857 217.759L110.093 217.911L114.328 217.892L118.558 217.698L122.775 217.334L126.986 216.805L131.167 216.112L135.311 215.249L139.419 214.217L143.485 213.019L147.501 211.664L148.632 211.227C111.302 225.027 67.4098 216.913 37.226 186.729C-4.05419 145.449 -4.06157 78.5138 37.2231 37.2291C78.5078 -4.05555 145.443 -4.04817 186.723 37.232C211.851 62.3599 221.684 96.9854 216.222 129.551L216.623 127.181L216.617 127.187L217.145 122.976L217.51 118.746L217.704 114.505L217.728 110.263L217.589 106.028L217.279 101.792L216.798 97.5808L216.148 93.3939L215.328 89.2313L214.349 85.1052L213.207 81.0216L211.9 76.9927L210.429 73.0185L208.801 69.105L207.02 65.2584L205.076 61.4908L202.985 57.796L200.755 54.1925L198.385 50.6801L195.875 47.271L193.226 43.9652L190.448 40.7627L187.544 37.6756L187.459 37.7485ZM215.219 134.783C215.092 135.372 214.952 135.962 214.812 136.551L215.079 135.506L215.231 134.783L215.219 134.783ZM190.05 183.25C189.686 183.651 189.309 184.052 188.932 184.454L189.667 183.694L190.05 183.25ZM33.4858 33.4918C-9.85882 76.8365 -9.85746 147.12 33.4889 190.467C76.8352 233.813 147.119 233.814 190.464 190.47C233.808 147.125 233.813 76.8351 190.467 33.4888C147.12 -9.8575 76.8365 -9.85888 33.4858 33.4918ZM194.544 39.9728L193.159 43.9834L197.352 43.3393L195.808 47.2892L200.019 46.8092L198.324 50.6922L202.554 50.3885L200.706 54.2046L204.948 54.071L202.943 57.8143L207.19 57.8447L205.039 61.5029L209.275 61.7035L206.978 65.2766L211.201 65.6474L208.758 69.1232L212.963 69.6581L210.387 73.0367L214.574 73.7477L211.864 77.017L216.014 77.8982L213.176 81.052L217.296 82.0973L214.337 85.1295L218.402 86.3389L215.322 89.2496L219.338 90.6169L216.148 93.4061L220.104 94.9314L216.804 97.5869L220.694 99.2763L217.291 101.804L221.113 103.645L217.613 106.028L221.356 108.021L217.759 110.269L221.423 112.414L217.735 114.511L221.308 116.796L217.546 118.746L221.028 121.171L217.188 122.969L220.567 125.534L216.659 127.181L219.929 129.879L215.96 131.368L219.126 134.193L215.104 135.518L218.148 138.465L214.077 139.632L217 142.701L212.88 143.697L215.681 146.888L211.531 147.72L214.205 151.014L210.024 151.682L212.558 155.079L208.353 155.577L210.753 159.071L206.536 159.399L208.79 162.991L204.555 163.155L206.664 166.831L202.422 166.819L204.391 170.575L200.162 170.404L201.973 174.233L197.749 173.886L199.402 177.788L195.191 177.271L196.692 181.239L192.511 180.558L193.848 184.581L189.704 183.73L190.877 187.808L186.805 186.799L187.808 190.889L183.743 189.704L184.587 193.866L180.577 192.517L181.257 196.71L177.295 195.203L177.806 199.42L173.905 197.755L174.251 201.991L170.423 200.168L170.593 204.409L166.843 202.434L166.85 206.682L163.179 204.567L163.009 208.809L159.43 206.542L159.09 210.771L155.602 208.365L155.097 212.588L151.712 210.042L151.038 214.241L147.75 211.561L146.912 215.73L143.74 212.922L142.731 217.054L139.674 214.119L138.496 218.203L135.554 215.152L134.218 219.187L131.404 216.021L129.909 219.995L127.223 216.714L125.57 220.627L123.018 217.248L121.213 221.095L118.801 217.613L116.844 221.381L114.571 217.807L112.463 221.496L110.33 217.832L108.076 221.435L106.094 217.692L103.706 221.198L101.877 217.376L99.3432 220.785L97.666 216.896L94.9983 220.195L93.473 216.239L90.6777 219.435L89.3165 215.425L86.3875 218.5L85.1842 214.44L82.1399 217.4L81.1006 213.298L77.9408 216.13L77.0717 211.979L73.8025 214.689L73.0975 210.508L69.7189 213.085L69.1841 208.88L65.7082 211.31L65.3435 207.093L61.7704 209.39L61.5759 205.161L57.9116 207.306L57.8812 203.07L54.1379 205.075L54.2776 200.84L50.4615 202.687L50.7713 198.464L46.8761 200.159L47.3561 195.948L43.4002 197.485L44.0381 193.298L40.0275 194.672L40.8356 190.509L36.7703 191.731L37.7425 187.611L33.6407 188.662L34.777 184.584L30.6327 185.471L31.9391 181.443L27.7583 182.159L29.2167 178.185L25.0055 178.738L26.6279 174.831L22.4046 175.214L24.1789 171.373L19.9434 171.586L21.8697 167.812L17.6281 167.861L19.7002 164.172L15.4647 164.044L17.6826 160.441L13.4471 160.143L15.817 156.631L11.5997 156.169L14.1033 152.754L9.91031 152.122L12.5476 148.804L8.38497 148.008L11.1559 144.799L7.02369 143.839L9.92225 140.746L5.82649 139.616L8.84658 136.644L4.80552 135.35L7.93499 132.5L3.94861 131.054L7.19354 128.331L3.26793 126.715L6.62225 124.126L2.76955 122.364L6.2211 119.909L2.44132 117.988L5.9901 115.679L2.28324 113.613L5.92318 111.444L2.30747 109.226L6.0264 107.208L2.50184 104.851L6.29977 102.973L2.86636 100.475L6.73722 98.7556L3.41318 96.1243L7.35696 94.5627L4.13623 91.8038L8.12863 90.4001L5.02336 87.5136L9.07045 86.274L6.08063 83.2599L10.1763 82.1783L7.30805 79.0427L11.4463 78.1252L8.70562 74.8862L12.8803 74.1388L10.2733 70.7905L14.4663 70.2072L11.993 66.7616L16.2102 66.3485L13.8767 62.7996L18.1061 62.5567L15.9184 58.9227L20.1539 58.8559L18.1181 55.1309L22.3536 55.2221L20.4637 51.4241L24.6931 51.6915L22.9551 47.8145L27.1724 48.2522L25.5923 44.3144L29.7853 44.9221L28.3633 40.9236L32.5259 41.6954L31.2679 37.6422L35.4062 38.5842L34.3062 34.4824L38.3959 35.5823L37.46 31.438L41.5071 32.702L40.7414 28.5212L44.7338 29.9493L44.1382 25.7442L48.0638 27.3242L47.6384 23.0948L51.5032 24.8328L51.2479 20.5912L55.0398 22.4873L54.9486 18.2396L58.6555 20.2815L58.7344 16.0338L62.3623 18.2276L62.6113 13.9921L66.148 16.3256L66.5672 12.1023L70.0128 14.5756L70.5961 10.3705L73.9384 12.9836L74.6979 8.80886L77.9368 11.5496L78.8543 7.4113L81.9779 10.2796L83.0655 6.1778L86.0614 9.17369L87.3192 5.10837L90.1997 8.21973L91.6094 4.22124L94.3683 7.44197L95.936 3.50428L98.5612 6.83439L100.287 2.95745L102.778 6.38479L104.656 2.57469L107.008 6.10533L109.037 2.37426L111.249 5.99604L113.431 2.35611L115.497 6.06296L117.818 2.51419L119.739 6.29396L122.2 2.83633L123.962 6.68903L126.551 3.33472L128.161 7.25425L130.883 4.00932L132.336 7.98962L135.192 4.85407L136.48 8.88906L139.458 5.87504L140.582 9.96473L143.675 7.06617L144.635 11.1984L147.844 8.42744L148.64 12.59L151.958 9.95279L152.59 14.1458L156.011 11.6361L156.473 15.8534L159.991 13.4896L160.283 17.719L163.893 15.495L164.014 19.7366L167.709 17.6584L167.66 21.9L171.44 19.9677L171.221 24.2092L175.068 22.4288L174.679 26.6582L178.599 25.0358L178.04 29.2409L182.02 27.7765L181.291 31.9573L185.326 30.6569L184.438 34.8013L188.522 33.6589L187.465 37.7668L191.591 36.7885L190.369 40.8538L194.538 40.0396L194.544 39.9728ZM214.131 139.249C214.04 139.595 213.943 139.936 213.852 140.282L214.046 139.614L214.138 139.243L214.131 139.249ZM216.191 129.788C215.967 131.131 215.705 132.461 215.426 133.798L215.936 131.368L216.203 129.788H216.191ZM192.681 180.267C192.487 180.498 192.292 180.729 192.104 180.953L192.487 180.522L192.687 180.261L192.681 180.267ZM195.209 177.168C195.088 177.326 194.96 177.478 194.845 177.629L195.167 177.234L195.215 177.162L195.209 177.168ZM212.868 143.612C212.831 143.734 212.795 143.855 212.758 143.977L212.855 143.685L212.874 143.606L212.868 143.612ZM197.622 173.977L197.719 173.856C197.682 173.892 197.664 173.935 197.628 173.971L197.622 173.977ZM144.977 63.3005L144.977 63.0088L144.977 63.3005ZM87.6802 133.966L74.3478 133.978L64.1269 144.199L77.4472 144.199L87.6802 133.966ZM85.1946 121.77L69.2735 121.782L58.0257 133.03L73.9528 133.012L85.1885 121.776L85.1946 121.77ZM96.1571 125.489L99.8821 121.764L86.574 121.764C86.574 121.764 86.568 121.77 86.5619 121.776L75.3383 132.999L88.6525 132.994L96.1511 125.495L96.1571 125.489ZM87.6611 87.8494L77.4216 77.6342L64.1013 77.6461L74.3166 87.837L87.6611 87.8494ZM78.3155 111.391L63.8529 111.402L54.4462 120.833L68.8785 120.815L78.3155 111.378V111.391ZM78.1402 158.2L88.3672 147.973L88.373 134.634L78.1339 144.874L78.1402 158.2ZM86.1483 101.018L71.8436 101.017L70.2636 101.017L79.6706 110.4C80.6186 110.4 95.1785 110.4 95.1785 110.4L95.5735 110.394L86.1726 101.018L86.1543 101.012M100.569 135.759L100.569 122.439L89.3392 133.668L89.3455 146.995L100.575 135.765L100.569 135.759ZM70.3126 120.791L86.1669 120.798L95.5796 111.385L79.695 111.397L70.3126 120.803L70.3126 120.791ZM78.3155 110.43L68.8721 101.023L54.4215 101.035L63.8528 110.442L78.3216 110.424L78.3155 110.43ZM122.293 99.3412L126.024 95.6102L133.522 88.1116L133.522 74.8035L122.292 86.0332L122.287 99.3352L122.293 99.3412ZM134.513 73.813L134.501 87.1454L144.728 76.9185L144.727 63.5982L134.507 73.8191L134.513 73.813ZM133.528 73.4363L133.54 57.5152L122.298 68.757L122.286 84.678L133.528 73.4363ZM121.35 53.9297L111.919 63.3363L111.907 77.799L121.344 68.362L121.356 53.9236L121.35 53.9297ZM85.1699 100.039L73.9155 88.8093L58.0187 88.7968L69.2974 100.051L85.176 100.033L85.1699 100.039ZM101.546 53.911L101.528 68.3676L110.935 77.8111L110.953 63.3424L101.546 53.911ZM89.3201 88.1108L100.265 99.0552L100.562 99.353L100.55 86.057L100.544 86.051L89.3077 74.8148L89.314 88.1047L89.3201 88.1108ZM101.534 69.7592L101.522 78.2667L101.528 85.6499L110.917 95.063C110.917 94.8807 110.923 94.668 110.923 94.668L110.923 79.1601L101.54 69.7531L101.534 69.7592ZM121.314 85.6625L121.314 69.8143L111.907 79.1966L111.889 95.0752L116.192 90.7729L121.302 85.6625H121.314ZM100.562 76.1641L100.562 68.7991L89.2891 57.5265L89.3137 73.4597L100.556 84.7019L100.568 76.1702L100.562 76.1641ZM122.979 100.028L136.3 100.028L147.529 88.7986L134.209 88.7983L122.979 100.028ZM135.175 87.8321L148.514 87.8263L158.741 77.5993L145.414 77.593L135.175 87.8321ZM88.3171 73.8365L78.0837 63.6273L78.0961 76.9476L88.3356 87.1628L88.3111 73.8304L88.3171 73.8365ZM75.3557 88.8397L86.5675 100.052L93.8171 100.046L99.8756 100.04L88.6334 88.8217L75.3496 88.8336L75.3557 88.8397Z" fill="#FFF9EF"/>
</svg>
